<svg width="1436" height="1315" viewBox="0 0 1436 1315" fill="none" xmlns="http://www.w3.org/2000/svg">
<g opacity="0.05" filter="url(#filter0_d_19_32)">
<path d="M987.528 1313H985.052L761.538 784.211L987.528 1313ZM12.5762 1294.02C9.55333 1300.69 6.70828 1307.02 4 1313H20.6874L12.5762 1294.02ZM25.0097 1267.46L44.4874 1313H75.4547L40.124 1230.41C35.6102 1243.07 30.5493 1255.44 25.0097 1267.46ZM51.983 1200.98L99.8702 1313H130.578L67.1794 1164.66L51.983 1200.98ZM79.5582 1135.04L155.609 1313H185.345L94.2485 1099.93L79.5582 1135.04ZM121.632 1034.45L106.737 1070.06L210.65 1313H217.502C220.84 1302.89 224.177 1292.8 227.802 1282.82L121.618 1034.45H121.632ZM139.044 992.846L134.326 1004.14L239.907 1251.02C243.778 1241.31 247.772 1231.64 251.903 1222.04C252.628 1220.05 253.353 1218.08 254.064 1216.12L148.606 969.528C145.419 977.31 142.259 985.037 139.044 992.86V992.846ZM161.477 938.086L266.183 1182.96C270.656 1170.72 275.129 1158.51 279.588 1146.28L175.661 903.252C170.969 914.808 166.223 926.447 161.463 938.099L161.477 938.086ZM188.641 871.18L291.871 1112.65C296.152 1100.95 300.419 1089.24 304.701 1077.55L202.156 837.673C197.683 848.805 193.183 859.966 188.641 871.194V871.18ZM215.505 804.411L317.408 1042.81C321.689 1031.11 325.984 1019.45 330.265 1007.77L228.951 770.74C224.506 781.914 220.019 793.142 215.505 804.411ZM242.068 737.711L342.876 973.453C347.103 961.938 351.343 950.422 355.57 938.906L255.268 704.327C250.904 715.405 246.5 726.537 242.068 737.711ZM268.659 670.286L368.482 903.771C372.722 892.256 376.935 880.726 381.175 869.224L281.79 636.751C277.454 647.87 273.063 659.071 268.659 670.286ZM295.276 602.068L394.279 833.693C398.355 822.642 402.472 811.619 406.562 800.582L307.806 569.695C303.647 580.445 299.489 591.222 295.276 602.081V602.068ZM321.634 533.767L420.103 764.038C424.125 753.179 428.16 742.306 432.181 731.447L333.958 501.6C329.882 512.268 325.779 522.99 321.634 533.767ZM347.965 464.837L446.01 694.165C449.881 683.744 453.724 673.308 457.609 662.887L359.701 433.887C355.83 444.145 351.904 454.484 347.965 464.837ZM373.611 396.947L471.506 625.837C475.486 615.183 479.508 604.543 483.502 593.875L385.621 364.876C381.64 375.516 377.66 386.184 373.611 396.947ZM409.38 300.035C406.753 306.162 405.003 312.276 403.252 317.528C402.048 320.755 400.831 324.038 399.627 327.279L497.59 556.361C501.42 546.144 505.25 535.928 509.093 525.725L410.802 295.878C410.31 297.245 409.886 298.654 409.38 300.008V300.035ZM422.812 251.88L523.497 487.363C524.837 483.82 526.15 480.264 527.491 476.722C529.925 470.308 532.264 463.989 534.672 457.616L428.16 208.635C427.394 223.146 425.602 237.588 422.825 251.867L422.812 251.88ZM372.654 0L402.376 66.4815C408.532 80.2811 413.593 94.5594 417.587 109.139L549.581 417.941C553.192 408.285 556.885 398.547 560.51 388.878L394.279 0H372.654ZM402.376 66.4815L372.654 0H370.93L417.587 109.139C413.593 94.5594 408.532 80.2811 402.376 66.4815ZM426.382 0L575.515 348.956C575.843 348.108 576.144 347.26 576.472 346.412L761.538 784.225L987.528 1313.01H1010.41L448.91 0H426.382ZM575.515 348.956L761.538 784.211L576.472 346.399C576.144 347.26 575.843 348.095 575.515 348.943V348.956ZM481.436 0L1043.18 1313H1065.74L504.347 0H481.436ZM536.887 0L1098.53 1313H1120.44L558.964 0H536.887ZM592.708 0L1154.22 1313H1175.75L614.402 0H592.708ZM648.146 0L1209.55 1313H1230.21L668.964 0H648.146ZM1265.24 1313H1285.51L1192.26 1094.8L1183.1 1120.86L1265.24 1313ZM1207.87 1050.45L1311.56 1292.9L1320.45 1266.28L1217.03 1024.4L1207.87 1050.45ZM1233.01 978.979L1335.98 1219.79L1344.71 1193.66L1242 953.39L1233 978.965L1233.01 978.979ZM1258.16 907.464L1360.45 1146.56L1368.79 1121.57L1266.77 882.997L1258.16 907.464ZM1283.24 836.182L1384.8 1073.7L1392.87 1049.54L1291.58 812.481L1283.24 836.196V836.182ZM1409.14 1000.82L1416.95 977.46L1316.34 742.101L1308.29 764.968L1409.14 1000.82ZM1333.37 693.659L1432 924.437V883.257L1341.31 671.065L1333.37 693.659ZM1358.18 623.102L1432 795.686V754.916L1366.07 600.714L1358.19 623.116L1358.18 623.102ZM1383.28 551.779L1432 665.759V625.454L1391.05 529.664L1383.26 551.779H1383.28ZM1408.32 480.565L1432 535.942V498.017L1415.64 459.75L1408.32 480.565Z" fill="white" fill-opacity="0.5" shape-rendering="crispEdges"/>
</g>
<defs>
<filter id="filter0_d_19_32" x="0" y="0" width="1436" height="1321.01" filterUnits="userSpaceOnUse" color-interpolation-filters="sRGB">
<feFlood flood-opacity="0" result="BackgroundImageFix"/>
<feColorMatrix in="SourceAlpha" type="matrix" values="0 0 0 0 0 0 0 0 0 0 0 0 0 0 0 0 0 0 127 0" result="hardAlpha"/>
<feOffset dy="4"/>
<feGaussianBlur stdDeviation="2"/>
<feComposite in2="hardAlpha" operator="out"/>
<feColorMatrix type="matrix" values="0 0 0 0 0 0 0 0 0 0 0 0 0 0 0 0 0 0 0.25 0"/>
<feBlend mode="normal" in2="BackgroundImageFix" result="effect1_dropShadow_19_32"/>
<feBlend mode="normal" in="SourceGraphic" in2="effect1_dropShadow_19_32" result="shape"/>
</filter>
</defs>
</svg>
